####
#
# OBJ File Generated by Meshlab
#
####
# Object Linkage_fingers.obj
#
# Vertices: 180
# Faces: 364
#
####
vn 2.951046 0.958851 -3.455756
v 34.478310 16.005573 3.000000
vn 3.102916 0.000000 -3.455746
v 34.400002 16.500000 3.000000
vn 3.102915 -0.000000 3.455746
v 34.400002 16.500000 7.000000
vn 2.510311 1.823848 -3.455749
v 34.705574 15.559544 3.000000
vn 2.951047 0.958851 3.455756
v 34.478310 16.005573 7.000000
vn 1.823848 2.510309 -3.455756
v 35.059544 15.205573 3.000000
vn 2.510311 1.823848 3.455749
v 34.705574 15.559544 7.000000
vn 0.958855 2.951047 -3.455747
v 35.505573 14.978310 3.000000
vn 1.823849 2.510309 3.455753
v 35.059544 15.205573 7.000000
vn -0.000000 3.102913 -3.455754
v 36.000000 14.900000 3.000000
vn 0.958855 2.951046 3.455751
v 35.505573 14.978310 7.000000
vn -0.958855 2.951046 -3.455751
v 36.494427 14.978310 3.000000
vn 0.000000 3.102913 3.455754
v 36.000000 14.900000 7.000000
vn -1.823849 2.510309 -3.455753
v 36.940456 15.205573 3.000000
vn -0.958855 2.951047 3.455751
v 36.494427 14.978310 7.000000
vn -2.510311 1.823848 -3.455749
v 37.294426 15.559544 3.000000
vn -1.823849 2.510309 3.455753
v 36.940456 15.205573 7.000000
vn -2.951047 0.958851 -3.455756
v 37.521690 16.005573 3.000000
vn -2.510311 1.823848 3.455749
v 37.294426 15.559544 7.000000
vn -3.102916 -0.000000 -3.455746
v 37.599998 16.500000 3.000000
vn -2.951046 0.958851 3.455756
v 37.521690 16.005573 7.000000
vn -2.951046 -0.958851 -3.455756
v 37.521690 16.994427 3.000000
vn -3.102915 0.000000 3.455746
v 37.599998 16.500000 7.000000
vn -2.510312 -1.823847 -3.455748
v 37.294426 17.440456 3.000000
vn -2.951047 -0.958851 3.455756
v 37.521690 16.994427 7.000000
vn -1.823848 -2.510309 -3.455756
v 36.940456 17.794428 3.000000
vn -2.510312 -1.823846 3.455748
v 37.294426 17.440456 7.000000
vn -0.958853 -2.951048 -3.455749
v 36.494427 18.021690 3.000000
vn -1.823848 -2.510309 3.455756
v 36.940456 17.794428 7.000000
vn 0.000000 -3.102913 -3.455754
v 36.000000 18.100000 3.000000
vn -0.958852 -2.951047 3.455749
v 36.494427 18.021690 7.000000
vn 0.958852 -2.951047 -3.455749
v 35.505573 18.021690 3.000000
vn -0.000000 -3.102913 3.455754
v 36.000000 18.100000 7.000000
vn 1.823848 -2.510309 -3.455756
v 35.059544 17.794428 3.000000
vn 0.958853 -2.951048 3.455749
v 35.505573 18.021690 7.000000
vn 2.510312 -1.823846 -3.455748
v 34.705574 17.440456 3.000000
vn 1.823847 -2.510309 3.455756
v 35.059544 17.794428 7.000000
vn 2.951047 -0.958851 -3.455756
v 34.478310 16.994427 3.000000
vn 2.510313 -1.823847 3.455748
v 34.705574 17.440456 7.000000
vn 2.951046 -0.958851 3.455756
v 34.478310 16.994427 7.000000
vn -0.958852 -2.951048 -3.455750
v 56.494427 6.021690 3.000000
vn 2.531802 1.796264 -2.833061
v 59.077915 11.595798 3.000000
vn 2.957704 0.942642 -2.833063
v 59.763905 10.220889 3.000000
vn 1.823849 -2.510309 -3.455754
v 55.059544 5.794427 3.000000
vn 2.510311 -1.823848 -3.455736
v 54.705574 5.440456 3.000000
vn 1.259472 2.867879 -2.987320
v 56.651752 13.421886 3.000000
vn 0.958852 -2.951047 -3.455751
v 55.505573 6.021690 3.000000
vn 0.000000 -3.102914 -3.455752
v 56.000000 6.100000 3.000000
vn 1.866799 2.480251 -2.833061
v 58.006813 12.697477 3.000000
vn 0.524489 3.086221 -2.973257
v 34.987988 20.929323 3.000000
vn 0.911346 3.003595 -3.057422
v 35.802025 20.719292 3.000000
vn -1.823848 -2.510309 -3.455755
v 56.940456 5.794427 3.000000
vn 3.122939 0.241359 -2.987327
v 60.000000 8.702595 3.000000
vn 2.510310 -1.823848 -2.827433
v 59.045086 2.061074 3.000000
vn 1.823847 -2.510311 -2.827434
v 57.938927 0.954915 3.000000
vn -1.823849 2.510309 -3.455754
v 56.940456 3.205573 3.000000
vn 0.958853 -2.951047 -2.827433
v 56.545086 0.244717 3.000000
vn -0.958853 2.951046 -3.455751
v 56.494427 2.978310 3.000000
vn 0.245727 -3.122253 -2.984513
v 55.000000 0.000000 3.000000
vn 0.958853 2.951047 -3.455751
v 55.505573 2.978310 3.000000
vn -0.000000 3.102914 -3.455752
v 56.000000 2.900000 3.000000
vn -0.149199 -3.134491 -3.046467
v 50.962914 0.000000 3.000000
vn 1.823848 2.510309 -3.455754
v 55.059544 3.205573 3.000000
vn 0.168145 3.248843 -3.132570
v 31.333334 21.000000 3.000000
vn 0.132057 3.136032 -3.057424
v 34.150272 21.000000 3.000000
vn -1.076134 -3.009402 -3.136729
v 31.333334 7.466667 3.000000
vn 2.951046 -0.958852 -3.455456
v 54.478310 4.994427 3.000000
vn -2.510311 -1.823848 -3.455748
v 57.294426 5.440456 3.000000
vn 2.510311 1.823848 -3.455749
v 54.705574 3.559544 3.000000
vn 3.122254 -0.245726 -2.984514
v 60.000000 5.000000 3.000000
vn -2.951047 -0.958852 -3.455757
v 57.521690 4.994427 3.000000
vn 2.951047 -0.958852 -2.827433
v 59.755283 3.454915 3.000000
vn -2.951046 0.958852 -3.455757
v 57.521690 4.005573 3.000000
vn -3.102916 0.000000 -3.455746
v 57.599998 4.500000 3.000000
vn -2.510311 1.823848 -3.455748
v 57.294426 3.559544 3.000000
vn -0.591411 -3.070961 -2.951341
v 50.017376 0.090218 3.000000
vn 2.951047 0.958852 -3.455756
v 54.478310 4.005573 3.000000
vn 3.102916 -0.000000 -3.455746
v 54.400002 4.500000 3.000000
vn -1.025591 -2.965714 -3.046465
v 49.105957 0.357617 3.000000
vn 0.245727 -3.122254 2.984513
v 55.000000 0.000000 7.000000
vn -0.149199 -3.134491 3.046467
v 50.962914 0.000000 7.000000
vn 3.122939 0.241359 2.987327
v 60.000000 8.702595 7.000000
vn 3.122254 -0.245726 2.984514
v 60.000000 5.000000 7.000000
vn 2.951047 -0.958852 2.827433
v 59.755283 3.454915 7.000000
vn 2.510310 -1.823848 2.827433
v 59.045086 2.061074 7.000000
vn 1.823847 -2.510311 2.827434
v 57.938927 0.954915 7.000000
vn 0.958853 -2.951047 2.827433
v 56.545086 0.244717 7.000000
vn 0.911346 3.003595 3.057422
v 35.802025 20.719292 7.000000
vn 1.259472 2.867880 2.987320
v 56.651752 13.421886 7.000000
vn 2.957704 0.942642 2.833063
v 59.763905 10.220889 7.000000
vn 2.531802 1.796264 2.833061
v 59.077915 11.595798 7.000000
vn 1.866800 2.480251 2.833061
v 58.006813 12.697477 7.000000
vn 0.132057 3.136032 3.057424
v 34.150272 21.000000 7.000000
vn 0.524489 3.086221 2.973257
v 34.987988 20.929323 7.000000
vn -0.591411 -3.070960 2.951340
v 50.017376 0.090218 7.000000
vn -1.025591 -2.965714 3.046465
v 49.105957 0.357617 7.000000
vn 3.102916 0.000000 3.455746
v 54.400002 4.500000 7.000000
vn 2.951046 0.958852 3.455756
v 54.478310 4.005573 7.000000
vn 2.510311 1.823848 3.455749
v 54.705574 3.559544 7.000000
vn 1.823849 2.510309 3.455754
v 55.059544 3.205573 7.000000
vn 0.958853 2.951047 3.455751
v 55.505573 2.978310 7.000000
vn 0.000000 3.102914 3.455752
v 56.000000 2.900000 7.000000
vn -0.958853 2.951047 3.455751
v 56.494427 2.978310 7.000000
vn -1.823848 2.510309 3.455754
v 56.940456 3.205573 7.000000
vn -2.510311 1.823848 3.455748
v 57.294426 3.559544 7.000000
vn -2.951046 0.958852 3.455757
v 57.521690 4.005573 7.000000
vn -3.102916 -0.000000 3.455746
v 57.599998 4.500000 7.000000
vn -2.951046 -0.958852 3.455757
v 57.521690 4.994427 7.000000
vn -2.510311 -1.823848 3.455748
v 57.294426 5.440456 7.000000
vn -1.823848 -2.510309 3.455755
v 56.940456 5.794427 7.000000
vn -0.958852 -2.951047 3.455750
v 56.494427 6.021690 7.000000
vn -0.000000 -3.102914 3.455752
v 56.000000 6.100000 7.000000
vn 0.958852 -2.951048 3.455751
v 55.505573 6.021690 7.000000
vn 1.823848 -2.510309 3.455754
v 55.059544 5.794427 7.000000
vn 2.510312 -1.823848 3.455742
v 54.705574 5.440456 7.000000
vn 2.951046 -0.958852 3.455757
v 54.478310 4.994427 7.000000
vn -1.076134 -3.009401 3.136725
v 31.333334 7.466667 7.000000
vn 0.168145 3.248843 3.132570
v 31.333334 21.000000 7.000000
vn 0.603131 3.319343 -3.071126
v 29.843319 21.000000 2.839580
vn 0.603131 3.319343 3.071126
v 29.843319 21.000000 7.160420
vn 1.147108 3.253728 3.018278
v 29.000000 21.000000 7.400337
vn 1.147108 3.253727 -3.018278
v 29.000000 21.000000 2.599663
vn -0.650523 -3.103065 -3.084233
v 29.843319 8.062673 2.839580
vn 1.877425 3.210070 -2.939839
v 28.421597 21.033567 2.365673
vn 0.002216 -3.106026 -2.899860
v 28.421597 8.631361 2.365673
vn 0.523038 -3.013084 -2.643864
v 27.133333 9.146667 1.600000
vn 3.213560 2.864318 -2.633662
v 27.133333 21.361513 1.600000
vn 2.617361 3.100403 -2.753232
v 27.615004 21.195650 1.930770
vn -0.650523 -3.103065 3.084233
v 29.843319 8.062673 7.160420
vn 0.002216 -3.106026 2.899861
v 28.421597 8.631361 7.634327
vn 1.877424 3.210070 2.939840
v 28.421597 21.033567 7.634327
vn 2.617360 3.100403 2.753233
v 27.615004 21.195650 8.069230
vn 0.523037 -3.013087 2.643864
v 27.133333 9.146667 8.400000
vn 3.213561 2.864319 2.633662
v 27.133333 21.361513 8.400000
vn 0.633512 -2.820310 -2.570004
v 25.533333 9.786667 0.400000
vn 3.730614 2.532175 -2.650388
v 26.338398 21.767284 1.003798
vn 3.901886 2.191139 -2.746562
v 25.533333 22.396915 0.400000
vn 0.633512 -2.820309 2.570005
v 25.533333 9.786667 9.600000
vn 3.730615 2.532175 2.650387
v 26.338398 21.767284 8.996202
vn 3.859159 2.151279 2.799701
v 25.533333 22.396915 9.600000
vn 0.262201 -2.725894 -2.781326
v 25.165258 9.933897 0.181236
vn 3.565597 1.875105 -3.034731
v 25.270088 22.670172 0.232943
vn -0.351197 -2.728375 -3.019002
v 24.759052 10.096379 0.045834
vn 3.134409 1.600892 -3.237575
v 24.759052 23.351536 0.045834
vn -0.921091 -2.824416 -3.128413
v 24.333334 10.266666 0.000000
vn 2.954657 1.351588 -3.233704
v 24.493948 23.833090 0.006460
vn 2.958791 1.031465 -3.281951
v 24.333334 24.204945 0.000000
vn 0.262839 -2.727384 2.781116
v 25.165258 9.933897 9.818764
vn -0.353243 -2.730728 3.019687
v 24.759052 10.096379 9.954165
vn 3.504148 1.844462 3.071501
v 25.165258 22.791456 9.818764
vn -0.921090 -2.824416 3.128413
v 24.333334 10.266666 10.000000
vn 3.140115 1.597561 3.225407
v 24.759052 23.351536 9.954165
vn 2.954666 1.351589 3.233704
v 24.493948 23.833090 9.993540
vn 2.958790 1.031464 3.281951
v 24.333334 24.204945 10.000000
vn -1.384671 -2.809497 -2.986776
v 2.349787 19.060085 0.000000
vn -1.384671 -2.809496 2.986776
v 2.349787 19.060085 10.000000
vn 2.998531 0.931211 -3.074025
v 24.069933 25.166666 0.000000
vn 2.998531 0.931211 3.074025
v 24.069933 25.166666 10.000000
vn -1.976157 -2.393687 2.831958
v 1.023517 19.846682 10.000000
vn -1.976157 -2.393687 -2.831959
v 1.023517 19.846682 0.000000
vn -2.745661 -1.042638 2.415753
v 0.000000 21.000000 10.000000
vn -2.745661 -1.042638 -2.415753
v 0.000000 21.000000 0.000000
vn -1.570796 1.570796 -1.570796
v 0.000000 28.000000 0.000000
vn -1.570796 1.570796 1.570796
v 0.000000 28.000000 10.000000
vn 0.779164 2.934726 2.622570
v 3.000000 28.000000 10.000000
vn 0.779164 2.934726 -2.622570
v 3.000000 28.000000 0.000000
vn 0.644062 3.057584 -3.349202
v 7.526552 26.004475 0.000000
vn 0.000000 3.124682 -3.349201
v 10.000000 25.746794 0.000000
vn 1.260463 2.859173 -3.349200
v 5.159330 26.766453 0.000000
vn -1.260463 2.859173 -3.349201
v 14.840670 26.766453 0.000000
vn -0.779164 2.934726 -2.622571
v 17.000000 28.000000 0.000000
vn -0.644062 3.057584 -3.349202
v 12.473449 26.004475 0.000000
vn 1.483530 2.087072 -1.905692
v 23.083920 28.000000 0.000000
vn 0.000000 3.124682 3.349201
v 10.000000 25.746794 10.000000
vn 0.644062 3.057584 3.349202
v 7.526552 26.004475 10.000000
vn -0.644062 3.057584 3.349202
v 12.473449 26.004475 10.000000
vn 1.483530 2.087072 1.905692
v 23.083920 28.000000 10.000000
vn -0.779164 2.934726 2.622571
v 17.000000 28.000000 10.000000
vn -1.260463 2.859173 3.349201
v 14.840670 26.766453 10.000000
vn 1.260463 2.859173 3.349200
v 5.159330 26.766453 10.000000
# 180 vertices, 0 vertices normals

f 1//1 2//2 3//3
f 4//4 1//1 5//5
f 6//6 4//4 7//7
f 8//8 6//6 9//9
f 10//10 8//8 11//11
f 12//12 10//10 13//13
f 14//14 12//12 15//15
f 16//16 14//14 17//17
f 18//18 16//16 19//19
f 20//20 18//18 21//21
f 22//22 20//20 23//23
f 24//24 22//22 25//25
f 26//26 24//24 27//27
f 28//28 26//26 29//29
f 30//30 28//28 31//31
f 32//32 30//30 33//33
f 34//34 32//32 35//35
f 36//36 34//34 37//37
f 38//38 36//36 39//39
f 2//2 38//38 40//40
f 40//40 3//3 2//2
f 39//39 40//40 38//38
f 37//37 39//39 36//36
f 35//35 37//37 34//34
f 33//33 35//35 32//32
f 31//31 33//33 30//30
f 29//29 31//31 28//28
f 27//27 29//29 26//26
f 25//25 27//27 24//24
f 23//23 25//25 22//22
f 21//21 23//23 20//20
f 19//19 21//21 18//18
f 17//17 19//19 16//16
f 15//15 17//17 14//14
f 13//13 15//15 12//12
f 11//11 13//13 10//10
f 9//9 11//11 8//8
f 7//7 9//9 6//6
f 5//5 7//7 4//4
f 3//3 5//5 1//1
f 41//41 42//42 43//43
f 18//18 44//44 45//45
f 20//20 46//46 47//47
f 48//48 46//46 49//49
f 41//41 49//49 42//42
f 32//32 50//50 51//51
f 45//45 16//16 18//18
f 46//46 48//48 47//47
f 43//43 52//52 41//41
f 52//52 43//43 53//53
f 54//54 55//55 56//56
f 55//55 57//57 58//58
f 59//59 60//60 61//61
f 59//59 62//62 63//63
f 34//34 64//64 65//65
f 32//32 65//65 50//50
f 66//66 6//6 67//67
f 67//67 6//6 8//8
f 47//47 44//44 20//20
f 53//53 68//68 52//52
f 45//45 12//12 14//14
f 45//45 8//8 10//10
f 58//58 56//56 55//55
f 63//63 60//60 59//59
f 69//69 63//63 62//62
f 64//64 36//36 38//38
f 51//51 30//30 32//32
f 51//51 26//26 28//28
f 8//8 45//45 67//67
f 66//66 64//64 2//2
f 49//49 41//41 48//48
f 10//10 12//12 45//45
f 53//53 70//70 71//71
f 72//72 73//73 74//74
f 72//72 54//54 75//75
f 57//57 61//61 58//58
f 62//62 76//76 69//69
f 64//64 34//34 36//36
f 28//28 30//30 51//51
f 66//66 4//4 6//6
f 2//2 1//1 66//66
f 14//14 16//16 45//45
f 70//70 74//74 71//71
f 75//75 73//73 72//72
f 61//61 57//57 59//59
f 77//77 69//69 76//76
f 78//78 77//77 79//79
f 65//65 32//32 34//34
f 46//46 24//24 26//26
f 1//1 4//4 66//66
f 71//71 68//68 53//53
f 56//56 75//75 54//54
f 79//79 66//66 78//78
f 26//26 51//51 46//46
f 46//46 20//20 22//22
f 18//18 20//20 44//44
f 76//76 79//79 77//77
f 22//22 24//24 46//46
f 74//74 70//70 72//72
f 67//67 78//78 66//66
f 38//38 2//2 64//64
f 59//59 80//80 81//81
f 81//81 62//62 59//59
f 53//53 82//82 83//83
f 83//83 70//70 53//53
f 70//70 83//83 84//84
f 72//72 84//84 85//85
f 54//54 85//85 86//86
f 55//55 86//86 87//87
f 57//57 87//87 80//80
f 80//80 59//59 57//57
f 87//87 57//57 55//55
f 86//86 55//55 54//54
f 85//85 54//54 72//72
f 84//84 72//72 70//70
f 51//51 88//88 89//89
f 89//89 46//46 51//51
f 82//82 53//53 43//43
f 90//90 43//43 42//42
f 91//91 42//42 49//49
f 92//92 49//49 46//46
f 46//46 89//89 92//92
f 49//49 92//92 91//91
f 42//42 91//91 90//90
f 43//43 90//90 82//82
f 65//65 93//93 94//94
f 50//50 94//94 88//88
f 88//88 51//51 50//50
f 94//94 50//50 65//65
f 62//62 81//81 95//95
f 76//76 95//95 96//96
f 96//96 79//79 76//76
f 95//95 76//76 62//62
f 77//77 78//78 97//97
f 69//69 77//77 98//98
f 63//63 69//69 99//99
f 60//60 63//63 100//100
f 61//61 60//60 101//101
f 58//58 61//61 102//102
f 56//56 58//58 103//103
f 75//75 56//56 104//104
f 73//73 75//75 105//105
f 74//74 73//73 106//106
f 71//71 74//74 107//107
f 68//68 71//71 108//108
f 52//52 68//68 109//109
f 41//41 52//52 110//110
f 48//48 41//41 111//111
f 47//47 48//48 112//112
f 44//44 47//47 113//113
f 45//45 44//44 114//114
f 67//67 45//45 115//115
f 78//78 67//67 116//116
f 116//116 97//97 78//78
f 115//115 116//116 67//67
f 114//114 115//115 45//45
f 113//113 114//114 44//44
f 112//112 113//113 47//47
f 111//111 112//112 48//48
f 110//110 111//111 41//41
f 109//109 110//110 52//52
f 108//108 109//109 68//68
f 107//107 108//108 71//71
f 106//106 107//107 74//74
f 105//105 106//106 73//73
f 104//104 105//105 75//75
f 103//103 104//104 56//56
f 102//102 103//103 58//58
f 101//101 102//102 61//61
f 100//100 101//101 60//60
f 99//99 100//100 63//63
f 98//98 99//99 69//69
f 97//97 98//98 77//77
f 111//111 110//110 90//90
f 90//90 91//91 111//111
f 112//112 111//111 92//92
f 23//23 114//114 113//113
f 21//21 19//19 115//115
f 117//117 115//115 15//15
f 110//110 109//109 82//82
f 92//92 89//89 112//112
f 113//113 89//89 23//23
f 114//114 23//23 21//21
f 35//35 33//33 88//88
f 15//15 13//13 117//117
f 115//115 19//19 17//17
f 91//91 92//92 111//111
f 115//115 114//114 21//21
f 80//80 101//101 100//100
f 80//80 87//87 102//102
f 86//86 104//104 103//103
f 85//85 105//105 104//104
f 88//88 94//94 35//35
f 37//37 35//35 93//93
f 117//117 5//5 3//3
f 82//82 109//109 108//108
f 17//17 15//15 115//115
f 113//113 112//112 89//89
f 99//99 95//95 81//81
f 102//102 101//101 80//80
f 104//104 86//86 85//85
f 89//89 27//27 25//25
f 89//89 88//88 29//29
f 88//88 33//33 31//31
f 93//93 118//118 37//37
f 117//117 7//7 5//5
f 117//117 11//11 9//9
f 108//108 83//83 82//82
f 82//82 90//90 110//110
f 100//100 81//81 80//80
f 103//103 87//87 86//86
f 84//84 106//106 105//105
f 84//84 83//83 107//107
f 29//29 27//27 89//89
f 94//94 93//93 35//35
f 9//9 7//7 117//117
f 13//13 11//11 117//117
f 97//97 117//117 96//96
f 98//98 96//96 95//95
f 103//103 102//102 87//87
f 107//107 106//106 84//84
f 31//31 29//29 88//88
f 108//108 107//107 83//83
f 117//117 97//97 116//116
f 95//95 99//99 98//98
f 105//105 85//85 84//84
f 118//118 39//39 37//37
f 118//118 3//3 40//40
f 116//116 115//115 117//117
f 81//81 100//100 99//99
f 40//40 39//39 118//118
f 96//96 98//98 97//97
f 3//3 118//118 117//117
f 25//25 23//23 89//89
f 65//65 64//64 118//118
f 119//119 120//120 118//118
f 118//118 64//64 119//119
f 119//119 121//121 120//120
f 118//118 93//93 65//65
f 119//119 122//122 121//121
f 64//64 66//66 123//123
f 124//124 125//125 126//126
f 126//126 127//127 128//128
f 119//119 123//123 125//125
f 125//125 124//124 122//122
f 125//125 122//122 119//119
f 126//126 128//128 124//124
f 123//123 119//119 64//64
f 118//118 120//120 129//129
f 120//120 121//121 130//130
f 130//130 129//129 120//120
f 131//131 132//132 133//133
f 133//133 130//130 131//131
f 132//132 134//134 133//133
f 121//121 131//131 130//130
f 129//129 117//117 118//118
f 135//135 136//136 127//127
f 135//135 137//137 136//136
f 127//127 126//126 135//135
f 138//138 133//133 134//134
f 134//134 139//139 138//138
f 139//139 140//140 138//138
f 141//141 142//142 137//137
f 143//143 144//144 142//142
f 145//145 146//146 144//144
f 145//145 147//147 146//146
f 144//144 143//143 145//145
f 142//142 141//141 143//143
f 137//137 135//135 141//141
f 148//148 138//138 140//140
f 149//149 148//148 150//150
f 151//151 149//149 152//152
f 152//152 153//153 151//151
f 153//153 154//154 151//151
f 150//150 152//152 149//149
f 140//140 150//150 148//148
f 145//145 138//138 148//148
f 66//66 79//79 96//96
f 129//129 123//123 66//66
f 148//148 149//149 145//145
f 133//133 141//141 135//135
f 66//66 117//117 129//129
f 155//155 145//145 151//151
f 145//145 133//133 138//138
f 133//133 143//143 141//141
f 129//129 125//125 123//123
f 149//149 151//151 145//145
f 133//133 145//145 143//143
f 96//96 117//117 66//66
f 130//130 135//135 126//126
f 135//135 130//130 133//133
f 126//126 125//125 130//130
f 129//129 130//130 125//125
f 151//151 156//156 155//155
f 124//124 131//131 121//121
f 124//124 132//132 131//131
f 121//121 122//122 124//124
f 134//134 132//132 128//128
f 128//128 127//127 134//134
f 136//136 139//139 134//134
f 140//140 139//139 136//136
f 137//137 150//150 140//140
f 136//136 137//137 140//140
f 144//144 152//152 150//150
f 150//150 142//142 144//144
f 146//146 153//153 152//152
f 154//154 153//153 146//146
f 157//157 158//158 154//154
f 154//154 147//147 157//157
f 146//146 147//147 154//154
f 144//144 146//146 152//152
f 137//137 142//142 150//150
f 127//127 136//136 134//134
f 124//124 128//128 132//132
f 155//155 156//156 159//159
f 160//160 159//159 161//161
f 161//161 162//162 160//160
f 159//159 160//160 155//155
f 163//163 162//162 161//161
f 161//161 164//164 163//163
f 163//163 164//164 165//165
f 165//165 166//166 163//163
f 155//155 167//167 168//168
f 168//168 145//145 155//155
f 166//166 160//160 162//162
f 155//155 169//169 167//167
f 162//162 163//163 166//166
f 170//170 157//157 147//147
f 157//157 170//170 171//171
f 168//168 172//172 145//145
f 169//169 155//155 160//160
f 171//171 173//173 157//157
f 166//166 169//169 160//160
f 172//172 170//170 145//145
f 147//147 145//145 170//170
f 156//156 151//151 174//174
f 174//174 175//175 156//156
f 165//165 164//164 161//161
f 151//151 176//176 174//174
f 158//158 177//177 178//178
f 179//179 151//151 154//154
f 159//159 180//180 165//165
f 151//151 179//179 176//176
f 154//154 158//158 179//179
f 161//161 159//159 165//165
f 178//178 179//179 158//158
f 175//175 180//180 156//156
f 159//159 156//156 180//180
f 178//178 177//177 173//173
f 173//173 171//171 178//178
f 179//179 178//178 171//171
f 176//176 179//179 170//170
f 174//174 176//176 172//172
f 175//175 174//174 168//168
f 180//180 175//175 167//167
f 165//165 180//180 169//169
f 169//169 166//166 165//165
f 167//167 169//169 180//180
f 168//168 167//167 175//175
f 172//172 168//168 174//174
f 170//170 172//172 176//176
f 171//171 170//170 179//179
f 173//173 177//177 158//158
f 158//158 157//157 173//173
# 364 faces, 0 coords texture

# End of File
